<?xml version="1.0" encoding="UTF-8" standalone="no"?>
<!DOCTYPE svg PUBLIC "-//W3C//DTD SVG 1.1//EN" "http://www.w3.org/Graphics/SVG/1.1/DTD/svg11.dtd">
<svg xmlns="http://www.w3.org/2000/svg" version="1.1" viewBox="0 0 501 222">
<path fill="rgb(0,0,0)" fill-opacity="1.000" d="M 470.27 49.94 A 33.02 33.02 0 0 1 437.25 82.96 A 33.02 33.02 0 0 1 404.23 49.94 A 33.02 33.02 0 0 1 437.25 16.92 A 33.02 33.02 0 0 1 470.27 49.94 Z M 462.79 49.86 A 25.56 25.56 0 0 0 437.23 24.30 A 25.56 25.56 0 0 0 411.67 49.86 A 25.56 25.56 0 0 0 437.23 75.42 A 25.56 25.56 0 0 0 462.79 49.86 Z"/>
<path fill="rgb(0,0,0)" fill-opacity="1.000" d="M 49.02 50.74 A 0.76 0.73 73.5 0 0 49.61 49.59 L 31.35 18.92 Q 30.80 17.99 31.89 18.00 Q 45.00 18.12 58.00 18.00 Q 70.09 17.88 75.94 27.31 Q 78.89 32.08 78.86 37.92 Q 78.82 43.33 76.05 48.14 Q 69.94 58.71 55.99 58.25 Q 48.50 58.00 41.16 58.00 A 1.66 1.66 89.8 0 0 39.50 59.67 Q 39.54 69.83 39.45 79.47 Q 39.44 81.09 38.74 81.68 Q 37.91 82.38 36.48 82.11 Q 36.00 82.02 35.51 82.11 Q 33.66 82.42 32.41 81.29 A 1.21 1.04 -71.7 0 1 32.06 80.44 L 32.05 53.37 Q 32.05 51.00 34.57 50.96 L 49.02 50.74 Z M 62.06 25.69 Q 54.71 24.46 45.43 25.13 A 0.68 0.68 72.6 0 0 44.90 26.15 L 58.53 49.45 Q 59.54 51.17 61.44 50.59 Q 67.72 48.69 70.17 43.00 Q 73.17 36.07 68.68 30.10 Q 65.85 26.32 62.06 25.69 Z"/>
<path fill="rgb(0,0,0)" fill-opacity="1.000" d="M 309.19 19.44 Q 310.27 17.04 312.39 18.18 A 1.55 1.22 87.4 0 1 313.01 18.90 Q 325.37 47.10 337.76 75.28 Q 338.99 78.06 339.50 80.03 Q 340.01 82.00 337.97 82.00 L 283.44 82.00 A 1.17 1.17 11.6 0 1 282.36 80.37 Q 295.55 49.69 309.19 19.44 Z M 301.94 53.24 Q 297.44 63.48 293.25 73.97 A 0.52 0.51 10.9 0 0 293.74 74.68 L 328.10 74.50 A 0.84 0.84 -11.8 0 0 328.87 73.33 L 311.62 32.98 Q 311.23 32.08 310.80 32.96 Q 308.35 37.99 306.24 43.04 Q 302.92 51.00 301.94 53.24 Z"/>
<path fill="rgb(0,0,0)" fill-opacity="1.000" d="M 392.22 25.41 Q 383.70 38.95 375.31 52.56 Q 374.24 54.30 374.39 56.93 Q 374.51 58.97 374.51 59.07 Q 374.62 70.19 374.33 81.31 A 0.59 0.52 -88.9 0 1 373.81 81.88 L 368.64 81.91 A 1.76 1.63 89.8 0 1 367.00 80.15 L 366.94 54.06 A 1.77 1.73 -61.4 0 0 366.68 53.14 L 345.64 19.30 Q 344.85 18.05 346.24 18.00 L 352.83 17.80 A 1.51 1.27 71.1 0 1 354.06 18.54 L 370.13 45.13 A 0.57 0.57 45.5 0 0 371.10 45.14 L 387.01 19.49 A 3.25 3.07 -79.1 0 1 389.01 18.05 Q 392.66 17.27 396.02 18.12 A 0.39 0.38 -67.9 0 1 396.25 18.69 Q 394.31 22.10 392.22 25.41 Z"/>
<path fill="rgb(0,0,0)" fill-opacity="1.000" d="M 85.11 81.82 A 1.33 1.32 -77.9 0 1 83.91 79.95 Q 97.05 50.30 109.86 20.73 Q 110.68 18.84 111.76 18.24 Q 113.91 17.06 115.25 20.25 Q 124.92 43.27 135.12 66.06 Q 138.17 72.87 140.94 79.83 Q 141.79 81.94 139.53 81.94 L 85.11 81.82 Z M 95.74 74.57 L 129.36 74.50 A 0.94 0.94 78.6 0 0 130.23 73.19 L 113.24 32.77 Q 112.74 31.56 112.21 32.76 Q 103.88 51.84 95.84 70.47 Q 95.16 72.04 95.00 73.76 A 0.74 0.74 2.8 0 0 95.74 74.57 Z"/>
<path fill="rgb(0,0,0)" fill-opacity="1.000" d="M 197.95 66.76 L 198.00 18.88 A 0.88 0.87 90.0 0 1 198.87 18.00 L 203.28 18.00 A 1.72 1.72 45.0 0 1 205.00 19.72 Q 205.00 46.63 205.15 73.75 Q 205.17 77.48 204.82 80.16 Q 204.58 82.00 202.72 82.00 L 152.27 82.00 A 1.77 1.77 -1.3 0 1 150.50 80.23 L 150.50 18.73 A 0.67 0.64 -90.0 0 1 151.14 18.06 L 158.18 18.04 A 1.32 1.18 64.8 0 1 159.05 18.41 Q 160.47 19.79 161.61 21.43 Q 163.60 24.30 163.65 24.36 Q 179.92 45.75 196.00 67.40 Q 197.94 70.01 197.95 66.76 Z M 191.61 73.84 L 159.30 30.17 Q 158.00 28.41 158.00 30.60 L 158.00 73.75 A 1.30 0.81 -0.3 0 0 159.31 74.56 L 191.28 74.50 Q 192.10 74.50 191.61 73.84 Z"/>
<path fill="rgb(0,0,0)" fill-opacity="1.000" d="M 220.68 81.83 A 1.75 1.75 1.2 0 1 219.00 80.08 L 219.00 19.98 Q 219.00 18.00 220.98 18.00 Q 229.64 18.00 238.30 18.00 Q 247.11 18.00 251.54 19.40 Q 261.44 22.52 267.69 31.31 Q 274.03 40.25 273.28 51.74 Q 272.23 67.81 259.06 76.56 Q 254.68 79.48 249.57 80.82 Q 246.02 81.75 239.35 81.94 Q 229.86 82.22 220.68 81.83 Z M 226.95 74.81 Q 231.25 74.62 235.56 74.54 Q 235.64 74.54 240.44 74.64 Q 253.92 74.91 261.44 64.19 Q 269.99 51.99 263.01 37.90 Q 258.13 28.03 248.25 26.00 Q 239.42 24.19 227.18 25.15 A 0.54 0.53 -2.3 0 0 226.68 25.68 L 226.51 74.39 A 0.42 0.41 -0.7 0 0 226.95 74.81 Z"/>
<circle fill="rgb(0,0,0)" fill-opacity="1.000" cx="437.35" cy="49.98" r="5.88"/>
<path fill="rgb(183,111,42)" fill-opacity="0.996" d="M 226.88 146.31 L 227.92 158.93 A 0.60 0.48 86.8 0 1 227.46 159.58 L 223.70 159.60 A 0.57 0.49 -88.9 0 1 223.21 159.01 Q 223.52 150.73 222.68 143.51 Q 221.23 131.11 222.39 118.68 A 0.53 0.52 4.0 0 1 222.94 118.21 Q 235.64 118.77 248.23 117.22 Q 250.01 117.00 250.41 117.73 Q 250.90 118.60 250.44 120.58 A 1.43 1.41 -82.6 0 1 249.04 121.67 Q 238.53 121.45 227.30 123.23 A 0.59 0.57 85.4 0 0 226.82 123.81 L 226.72 140.07 A 0.92 0.91 90.0 0 0 227.63 140.99 L 245.20 141.06 A 1.33 1.13 -20.1 0 1 246.06 141.38 Q 247.62 142.86 246.38 144.19 Q 245.70 144.91 244.24 145.08 Q 235.81 146.08 227.30 145.83 A 0.44 0.41 88.1 0 0 226.88 146.31 Z"/>
<path fill="rgb(183,111,42)" fill-opacity="0.996" d="M 276.01 123.56 Q 275.72 126.20 275.70 128.86 Q 275.68 131.20 275.20 134.08 Q 274.59 137.66 274.96 140.85 A 1.71 1.70 -5.2 0 0 276.76 142.35 Q 285.58 141.77 293.05 143.31 A 0.78 0.77 1.2 0 1 293.65 143.93 Q 293.91 145.42 293.62 146.46 A 0.73 0.68 6.9 0 1 292.94 146.95 L 282.83 147.01 Q 280.81 147.02 278.77 146.26 Q 276.91 145.56 275.25 146.33 A 1.20 1.01 88.8 0 0 274.67 147.05 Q 273.30 152.00 274.00 155.75 Q 274.86 160.38 269.84 159.69 A 0.64 0.64 1.7 0 1 269.29 159.11 Q 269.01 155.00 269.70 151.34 Q 270.14 148.96 269.97 146.61 Q 269.74 143.35 270.28 140.14 Q 271.00 135.86 271.06 133.77 Q 271.29 126.26 272.25 118.80 A 0.58 0.58 -87.1 0 1 272.81 118.29 Q 274.58 118.26 280.06 118.69 Q 290.16 119.48 300.25 120.45 A 0.66 0.61 -0.3 0 1 300.84 120.99 Q 301.07 122.71 299.87 123.91 A 1.19 0.96 19.7 0 1 299.01 124.21 L 276.57 123.07 A 0.54 0.54 -86.1 0 0 276.01 123.56 Z"/>
<path fill="rgb(183,111,42)" fill-opacity="0.996" d="M 200.50 144.45 A 21.33 21.33 0 0 1 179.17 165.78 A 21.33 21.33 0 0 1 157.84 144.45 A 21.33 21.33 0 0 1 179.17 123.12 A 21.33 21.33 0 0 1 200.50 144.45 Z M 196.12 144.34 A 16.99 16.99 0 0 0 179.13 127.35 A 16.99 16.99 0 0 0 162.14 144.34 A 16.99 16.99 0 0 0 179.13 161.33 A 16.99 16.99 0 0 0 196.12 144.34 Z"/>
<path fill="rgb(183,111,42)" fill-opacity="0.996" d="M 322.80 148.03 Q 330.61 149.46 338.39 151.05 Q 338.48 151.07 339.75 151.19 Q 341.35 151.35 340.91 153.02 Q 340.79 153.48 340.86 153.98 Q 341.00 155.00 340.27 155.47 A 1.46 0.80 22.1 0 1 339.32 155.58 L 322.40 152.70 A 1.14 1.11 -79.8 0 0 321.12 153.62 L 319.98 159.58 A 1.21 1.21 9.6 0 0 320.99 161.00 Q 331.30 162.60 341.89 164.92 Q 341.97 164.94 342.61 165.04 Q 344.41 165.31 343.71 167.36 A 2.43 2.42 -82.5 0 1 341.56 169.01 Q 339.08 169.17 336.48 168.57 Q 326.47 166.25 316.82 164.77 A 1.62 1.61 0.7 0 1 315.47 163.39 Q 315.04 160.16 315.60 158.09 Q 316.19 155.91 316.20 155.85 Q 318.93 140.02 322.00 124.23 A 0.91 0.89 -78.9 0 1 323.04 123.51 L 349.79 128.46 A 0.99 0.96 -83.2 0 1 350.58 129.50 Q 350.44 131.67 349.50 132.39 Q 348.86 132.88 346.95 132.45 Q 336.83 130.14 326.50 129.05 A 0.69 0.67 13.8 0 0 325.80 129.46 Q 324.61 132.37 324.94 135.50 A 0.69 0.65 3.2 0 0 325.49 136.08 L 342.98 139.59 A 0.66 0.63 -84.7 0 1 343.49 140.23 Q 343.52 144.38 340.71 143.65 Q 332.96 141.66 324.66 140.71 A 1.82 1.65 -84.6 0 0 322.82 142.39 L 322.40 147.44 A 0.57 0.49 -83.0 0 0 322.80 148.03 Z"/>
<path fill="rgb(183,111,42)" fill-opacity="0.996" d="M 115.94 137.94 Q 124.51 132.90 133.21 136.13 A 0.90 0.85 6.1 0 1 133.79 136.81 Q 134.27 139.80 130.75 139.75 Q 129.28 139.73 128.26 139.54 Q 126.57 139.22 125.83 139.30 Q 119.12 140.10 114.47 144.46 Q 111.14 147.58 109.96 151.96 Q 108.72 156.57 109.94 161.06 Q 111.58 167.08 116.63 170.43 Q 121.77 173.84 128.75 173.02 Q 135.51 172.24 139.78 166.82 A 1.24 1.23 -55.1 0 1 141.39 166.53 Q 145.10 168.77 143.05 170.57 Q 139.84 173.40 136.08 175.32 Q 132.23 177.30 128.11 177.60 Q 115.79 178.49 108.36 167.87 Q 108.31 167.80 107.67 167.10 Q 107.16 166.54 107.19 165.74 Q 107.21 165.18 107.02 164.80 Q 104.40 159.55 105.22 153.50 Q 106.60 143.42 115.94 137.94 Z"/>
<path fill="rgb(181,113,47)" fill-opacity="0.992" d="M 392.64 153.69 Q 393.08 157.56 389.31 156.44 Q 381.79 154.19 374.12 151.96 A 1.16 1.15 -68.0 0 0 372.78 152.53 Q 371.32 155.21 370.99 158.06 A 0.66 0.66 14.5 0 0 371.40 158.75 Q 379.16 161.90 387.83 164.15 A 1.28 1.27 -82.3 0 1 388.78 165.41 Q 388.69 168.66 387.07 168.65 Q 387.03 168.65 384.43 167.84 Q 377.48 165.66 370.00 163.53 A 0.90 0.88 -74.3 0 0 368.90 164.16 L 367.36 169.63 Q 366.85 171.48 368.65 171.98 Q 378.20 174.66 387.31 177.83 Q 389.10 178.45 389.58 179.47 Q 390.25 180.90 388.81 182.34 A 0.88 0.85 30.5 0 1 387.95 182.55 L 363.36 174.80 Q 361.31 174.15 361.96 172.08 L 373.20 136.15 A 1.79 1.75 17.3 0 1 375.43 135.01 L 399.95 142.57 A 1.07 1.06 -85.0 0 1 400.70 143.47 Q 401.23 148.04 397.49 146.65 Q 395.94 146.08 395.85 146.05 Q 386.98 143.30 377.40 140.32 A 0.93 0.84 17.4 0 0 376.26 140.84 L 374.55 146.28 A 0.79 0.71 18.3 0 0 375.07 147.19 L 392.09 153.02 A 0.83 0.80 6.6 0 1 392.64 153.69 Z"/>
<circle fill="rgb(183,111,42)" fill-opacity="0.996" cx="179.16" cy="144.38" r="3.55"/>
<circle fill="rgb(183,111,42)" fill-opacity="0.996" cx="126.54" cy="156.31" r="3.46"/>
<path fill="rgb(0,0,0)" fill-opacity="1.000" d="M 268.0796 208.2297 A 6.83 5.52 89.5 0 1 262.5002 201.4482 A 6.83 5.52 89.5 0 1 267.9604 194.5703 A 6.83 5.52 89.5 0 1 273.5398 201.3518 A 6.83 5.52 89.5 0 1 268.0796 208.2297 Z M 268.0976 206.8995 A 5.56 4.06 89.2 0 0 272.0796 201.2833 A 5.56 4.06 89.2 0 0 267.9424 195.7805 A 5.56 4.06 89.2 0 0 263.9604 201.3967 A 5.56 4.06 89.2 0 0 268.0976 206.8995 Z"/>
<path fill="rgb(0,0,0)" fill-opacity="1.000" d="M 227.24 206.80 Q 229.26 206.41 229.11 205.07 Q 228.88 203.03 226.90 202.46 Q 219.44 200.33 222.47 195.65 A 1.53 1.44 5.5 0 1 223.22 195.07 Q 226.75 193.80 229.56 195.94 Q 230.44 196.60 229.56 196.85 A 1.40 0.94 44.4 0 1 228.64 196.68 Q 226.29 195.34 223.77 196.36 A 0.93 0.91 -6.0 0 0 223.20 197.05 Q 222.63 200.19 226.25 200.72 Q 229.99 201.26 230.62 204.69 A 1.23 1.20 -32.8 0 1 230.41 205.61 Q 227.49 209.70 222.31 206.94 Q 221.26 206.37 221.52 205.72 A 0.61 0.49 22.6 0 1 222.27 205.50 Q 223.61 206.03 224.95 206.53 Q 226.21 207.00 227.24 206.80 Z"/>
<path fill="rgb(0,0,0)" fill-opacity="1.000" d="M 253.78 205.87 Q 252.76 206.83 254.14 206.63 Q 256.30 206.31 258.03 206.84 A 1.20 1.13 -49.7 0 0 258.93 206.74 Q 260.32 205.98 259.86 207.46 A 0.74 0.70 7.6 0 1 259.18 207.95 L 251.76 208.01 Q 249.42 208.03 251.17 206.45 Q 253.10 204.72 255.20 203.26 Q 258.23 201.16 257.98 197.55 A 1.16 1.15 18.2 0 0 257.56 196.73 Q 254.87 194.50 252.69 197.19 Q 251.66 198.46 251.22 197.54 A 0.82 0.70 -37.6 0 1 251.40 196.69 Q 254.06 193.86 257.78 195.08 A 1.59 1.52 -7.8 0 1 258.55 195.64 Q 261.29 199.45 257.41 202.68 Q 255.31 204.43 253.78 205.87 Z"/>
<path fill="rgb(0,0,0)" fill-opacity="1.000" d="M 278.81 206.62 L 283.21 206.82 Q 283.82 206.85 284.14 206.73 Q 285.26 206.31 284.87 207.48 A 0.73 0.68 7.8 0 1 284.20 207.95 L 277.22 208.01 Q 274.12 208.04 276.55 206.07 Q 279.32 203.83 281.74 201.23 Q 282.95 199.94 283.13 198.86 Q 283.45 197.03 281.67 196.09 A 2.04 2.04 41.5 0 0 279.55 196.22 Q 276.80 198.13 276.22 197.53 A 0.81 0.48 -50.9 0 1 276.35 196.66 Q 278.29 194.11 281.06 194.69 Q 286.09 195.73 284.08 200.32 Q 283.12 202.52 281.04 203.73 Q 279.42 204.67 278.54 206.24 A 0.29 0.25 13.8 0 0 278.81 206.62 Z"/>
<path fill="rgb(0,0,0)" fill-opacity="1.000" d="M 243.27 195.66 Q 243.39 196.09 240.04 195.90 A 1.01 0.99 -88.1 0 0 238.99 196.90 L 238.95 207.18 A 0.92 0.60 84.0 0 1 238.54 207.99 Q 238.32 208.07 238.08 208.00 A 0.67 0.57 -84.5 0 1 237.65 207.38 L 237.50 198.50 Q 237.45 195.25 234.50 196.00 Q 233.33 196.30 233.18 195.69 A 0.56 0.44 -9.5 0 1 233.69 195.13 Q 237.69 194.74 241.69 195.10 Q 243.16 195.23 243.27 195.66 Z"/>
<path fill="rgb(0,0,0)" fill-opacity="1.000" d="M 210.82 200.64 Q 214.65 200.28 216.44 200.56 Q 217.26 200.69 217.34 201.32 A 0.53 0.46 -4.5 0 1 216.82 201.85 L 211.32 202.07 A 0.75 0.65 6.3 0 0 210.65 202.53 Q 210.09 204.37 210.65 206.22 A 0.62 0.56 -11.9 0 0 211.31 206.61 Q 214.57 206.13 217.76 206.88 A 0.97 0.65 5.0 0 1 218.47 207.45 Q 218.59 208.03 217.50 208.02 Q 214.25 208.00 209.76 208.00 A 0.76 0.76 45.0 0 1 209.00 207.24 L 209.00 195.66 A 0.66 0.66 -45.0 0 1 209.66 195.00 Q 214.00 195.00 218.00 195.10 Q 218.74 195.12 218.51 195.62 A 0.85 0.64 9.4 0 1 217.79 196.00 Q 214.89 196.01 212.00 196.09 Q 209.91 196.15 210.56 198.03 A 1.94 1.62 -53.3 0 1 210.61 198.97 L 210.36 200.20 A 0.42 0.37 2.2 0 0 210.82 200.64 Z"/>
<path fill="rgb(0,0,0)" fill-opacity="1.000" d="M 289.51 200.10 Q 289.40 198.55 289.58 196.91 Q 289.72 195.56 288.69 196.44 Q 287.24 197.67 287.08 196.32 A 0.84 0.81 -19.7 0 1 287.47 195.53 Q 288.77 194.71 290.24 194.96 A 0.89 0.88 4.9 0 1 290.99 195.84 L 290.95 207.18 A 0.96 0.71 80.9 0 1 290.53 207.99 Q 290.13 208.18 289.78 207.92 A 1.14 0.72 -79.7 0 1 289.43 207.06 Q 289.43 205.16 289.56 203.27 Q 289.64 202.06 289.51 200.10 Z"/>
<ellipse fill="rgb(0,0,0)" fill-opacity="0.000" cx="0" cy="0" rx="5.56" ry="4.06" transform="translate(268.02,201.34) rotate(89.2)"/>
</svg>